<svg xmlns="http://www.w3.org/2000/svg" viewBox="0 0 60 56" width="60" height="56">
	<style>
		tspan { white-space:pre }
		.shp0 { fill: #97735e } 
	</style>
	<g id="PSD">
		<g id="Our Team">
			<g id="Team Group">
				<g id="Join Team">
					<g id="Shape Icon">
						<path id="COFFE ICON" class="shp0" d="M21.44 8.52C18.08 9.9 17.01 12.81 17.45 15.08C17.91 17.43 19.83 19.02 22.24 19.02C22.82 19.02 23.29 18.54 23.29 17.96C23.29 17.38 22.82 16.9 22.24 16.9C20.54 16.9 19.7 15.7 19.5 14.67C19.25 13.36 19.81 11.47 22.23 10.48C25.31 9.22 26 6.71 25.63 4.78C25.11 2.05 22.58 -0.01 19.77 -0.01C19.19 -0.01 18.72 0.46 18.72 1.04C18.72 1.63 19.19 2.1 19.77 2.1C21.86 2.1 23.29 3.69 23.58 5.18C23.86 6.63 23.08 7.85 21.44 8.52ZM30.57 8.52C27.21 9.9 26.14 12.81 26.58 15.08C27.03 17.43 28.96 19.02 31.37 19.02C31.95 19.02 32.42 18.54 32.42 17.96C32.42 17.38 31.95 16.9 31.37 16.9C29.67 16.9 28.83 15.7 28.63 14.67C28.38 13.36 28.94 11.47 31.35 10.48C34.43 9.22 35.13 6.71 34.76 4.78C34.23 2.05 31.71 -0.01 28.89 -0.01C28.32 -0.01 27.85 0.46 27.85 1.04C27.85 1.63 28.32 2.1 28.89 2.1C30.99 2.1 32.42 3.69 32.71 5.18C32.99 6.63 32.21 7.85 30.57 8.52ZM59.13 32.79C58.38 31.28 56.51 28.84 52.22 28.58L52.22 28.23C52.22 24.9 49.53 22.19 46.22 22.19L5.99 22.19C2.68 22.19 -0.01 24.9 -0.01 28.23L-0.01 33.66C-0.01 45.99 11.7 56.01 26.11 56.01C34.4 56.01 41.78 52.68 46.57 47.51C47.43 47.7 48.29 47.8 49.13 47.8C52.43 47.8 55.46 46.33 57.55 43.62C60.08 40.35 60.71 35.99 59.13 32.79ZM26.11 51.79C13.99 51.79 4.16 43.67 4.16 33.66L4.16 28.23C4.16 27.23 4.98 26.42 5.99 26.42L46.22 26.42C47.23 26.42 48.05 27.23 48.05 28.23L48.05 33.66C48.05 43.67 38.22 51.79 26.11 51.79ZM54.26 41.02C53.49 42.01 51.94 43.43 49.49 43.55C51.23 40.57 52.22 37.22 52.22 33.66L52.22 32.82C53.77 32.98 54.85 33.59 55.39 34.69C56.24 36.41 55.77 39.07 54.26 41.02Z" />
					</g>
				</g>
			</g>
		</g>
	</g>
</svg>